<svg viewBox="0 0 200 200" width="200" height="200" xmlns="http://www.w3.org/2000/svg">
  <polygon points="139.5,40 100.5,20.5 100.5,59.5" fill="#ff3ecb"/>
  <polygon points="160,99.5 140.5,60.5 179.5,60.5" fill="#ffa635"/>
  <polygon points="40,100.5 59.5,139.5 20.5,139.5" fill="#667eea"/>
  <polygon points="60.5,160 99.5,140.5 99.5,179.5" fill="#45ff80"/>
  <path d="M30.25,17.25h19.5v6.5h-19.5ZM23.75,23.75h13.0v6.5h-13.0ZM43.25,23.75h13.0v6.5h-13.0ZM17.25,30.25h13.0v6.5h-13.0ZM49.75,30.25h13.0v6.5h-13.0ZM17.25,36.75h13.0v6.5h-13.0ZM49.75,36.75h13.0v6.5h-13.0ZM17.25,43.25h45.5v6.5h-45.5ZM17.25,49.75h13.0v6.5h-13.0ZM49.75,49.75h13.0v6.5h-13.0ZM17.25,56.25h13.0v6.5h-13.0ZM49.75,56.25h13.0v6.5h-13.0Z" fill="#667eea"/>
  <path d="M70.25,57.25h32.5v6.5h-32.5ZM63.75,63.75h13.0v6.5h-13.0ZM57.25,70.25h13.0v6.5h-13.0ZM57.25,76.75h13.0v6.5h-13.0ZM83.25,76.75h19.5v6.5h-19.5ZM57.25,83.25h13.0v6.5h-13.0ZM89.75,83.25h13.0v6.5h-13.0ZM63.75,89.75h13.0v6.5h-13.0ZM89.75,89.75h13.0v6.5h-13.0ZM70.25,96.25h32.5v6.5h-32.5Z" fill="#45ff80"/>
  <path d="M116.75,97.25h13.0v6.5h-13.0ZM110.25,103.75h19.5v6.5h-19.5ZM116.75,110.25h13.0v6.5h-13.0ZM116.75,116.75h13.0v6.5h-13.0ZM116.75,123.25h13.0v6.5h-13.0ZM116.75,129.75h13.0v6.5h-13.0ZM103.75,136.25h39.0v6.5h-39.0Z" fill="#ff3ecb"/>
  <path d="M150.25,137.25h26.0v6.5h-26.0ZM143.75,143.75h13.0v6.5h-13.0ZM137.25,150.25h13.0v6.5h-13.0ZM137.25,156.75h39.0v6.5h-39.0ZM137.25,163.25h13.0v6.5h-13.0ZM169.75,163.25h13.0v6.5h-13.0ZM137.25,169.75h13.0v6.5h-13.0ZM169.75,169.75h13.0v6.5h-13.0ZM143.75,176.25h32.5v6.5h-32.5Z" fill="#ffa635"/>
</svg>