<?xml version="1.0" encoding="UTF-8" standalone="no"?>
<!-- Created with Inkscape (http://www.inkscape.org/) -->

<svg
   width="71.080765mm"
   height="70.461395mm"
   viewBox="0 0 71.080765 70.461395"
   version="1.1"
   id="svg1"
   xmlns="http://www.w3.org/2000/svg"
   xmlns:svg="http://www.w3.org/2000/svg">
  <defs
     id="defs1" />
  <g
     id="layer1"
     transform="translate(-93.318868,-201.74254)">
    <path
       style="fill:#000000"
       d="M 120.27106,271.98996 C 107.53249,269.14054 97.277428,258.6105 93.933365,244.94606 l -0.614486,-2.5109 0.01732,-5.28611 0.01732,-5.28611 0.565808,-2.28831 c 1.182135,-4.78093 3.08103,-9.08676 5.681377,-12.88278 l 1.376046,-2.00877 2.64306,-2.64305 2.64305,-2.64306 2.00878,-1.37605 c 3.86216,-2.64566 8.02214,-4.46924 12.92448,-5.66562 l 2.5109,-0.61277 h 5.15396 5.15395 l 2.51091,0.61277 c 4.90234,1.19638 9.06232,3.01996 12.92448,5.66562 l 2.00878,1.37605 2.64305,2.64306 2.64306,2.64305 1.37605,2.00877 c 2.64565,3.86216 4.46924,8.02214 5.66562,12.92449 l 0.61276,2.5109 v 5.15396 5.15396 l -0.61276,2.5109 c -1.19638,4.90235 -3.01997,9.06233 -5.66562,12.92448 l -1.37605,2.00878 -2.64306,2.64305 -2.64305,2.64306 -2.00878,1.37605 c -3.62697,2.48455 -9.16861,4.95456 -12.29409,5.4797 l -1.08759,0.18274 -0.29925,-1.1405 -0.29924,-1.14049 -0.90795,-1.22726 -0.90794,-1.22726 -1.49136,-0.72966 -1.49137,-0.72965 -1.27281,-0.1223 -1.27281,-0.12231 -1.33137,0.44221 c -0.73225,0.24322 -1.79683,0.77939 -2.36572,1.19149 l -1.03435,0.74928 -0.67068,1.15204 c -0.36887,0.63361 -0.75402,1.53857 -0.85587,2.01102 l -0.18519,0.85899 -0.44154,-0.0307 c -0.24284,-0.0169 -0.6794,-0.0839 -0.97014,-0.1489 z M 105.84353,240.2552 c 0.376,-0.27537 0.89801,-0.9085 1.16002,-1.40696 l 0.47637,-0.90628 -0.12219,-1.00121 c -0.22347,-1.83103 -1.43429,-3.04185 -3.26531,-3.26531 l -1.00122,-0.1222 -0.9198,0.47638 -0.9198,0.47637 -0.59996,0.89808 -0.59995,0.89808 v 0.97905 0.97905 l 0.59995,0.89808 0.59996,0.89808 0.9198,0.47637 0.9198,0.47638 1.03434,-0.12664 1.03434,-0.12664 z m 50.13146,0.075 c 0.36482,-0.23904 0.89506,-0.8147 1.17831,-1.27925 l 0.51501,-0.84463 9.9e-4,-0.95206 9.8e-4,-0.95206 -0.59995,-0.89808 -0.59996,-0.89808 -0.9198,-0.47637 -0.9198,-0.47638 -1.03434,0.12664 -1.03434,0.12663 -0.68364,0.50068 c -0.37601,0.27538 -0.89802,0.90851 -1.16002,1.40696 l -0.47638,0.90629 0.12664,1.03433 0.12663,1.03434 0.50068,0.68365 c 0.27538,0.37601 0.90851,0.89801 1.40696,1.16002 l 0.90628,0.47638 1.00122,-0.1222 c 0.55067,-0.0672 1.29971,-0.31777 1.66453,-0.55681 z m -42.52181,-18.44154 0.92852,-0.92852 0.13283,-1.17849 0.13283,-1.17849 -0.42061,-0.81338 c -0.54759,-1.05893 -1.58867,-1.86255 -2.67753,-2.06682 l -0.87119,-0.16344 -1.22674,0.54265 -1.22674,0.54264 -0.54491,1.23186 -0.54491,1.23186 0.1626,0.813 c 0.22216,1.11082 0.81643,1.95463 1.82118,2.58594 l 0.84463,0.53071 1.28076,-0.1105 1.28075,-0.1105 z m 35.25771,0.52014 0.89808,-0.59996 0.47483,-0.9198 0.47483,-0.9198 -0.15369,-1.0294 c -0.0845,-0.56617 -0.38891,-1.35973 -0.6764,-1.76348 l -0.52271,-0.73408 -1.19473,-0.45627 -1.19474,-0.45627 -1.02904,0.30831 -1.02905,0.30831 -0.68032,0.80851 c -0.82709,0.98294 -1.05834,1.81378 -0.85449,3.06998 l 0.15449,0.95197 0.73676,0.77912 c 0.89156,0.94283 1.49407,1.21403 2.74604,1.23606 l 0.95206,0.0168 z m -17.86122,-7.17694 c 0.90683,-0.59418 1.47417,-1.54818 1.61708,-2.71918 l 0.12219,-1.00122 -0.47637,-0.9198 -0.47637,-0.9198 -0.89808,-0.59995 -0.89808,-0.59996 h -0.97905 -0.97905 l -0.89808,0.59996 -0.89808,0.59995 -0.47637,0.9198 -0.47638,0.9198 0.12664,1.03434 0.12663,1.03434 0.50068,0.68365 c 0.27538,0.376 0.90851,0.89801 1.40696,1.16002 l 0.90628,0.47637 1.00122,-0.12219 c 0.55067,-0.0672 1.29237,-0.31296 1.64823,-0.54613 z"
       id="path1" />
  </g>
</svg>
